<mxfile host="app.diagrams.net" modified="2021-06-25T02:53:14.365Z" agent="5.0 (Windows NT 6.1; Win64; x64) AppleWebKit/537.36 (KHTML, like Gecko) Chrome/87.0.4280.88 Safari/537.36" etag="-kSjgWLHMBQt4XZU_HeI" version="14.8.1" type="github">
  <diagram id="UN_9P2ZrAMMiGKXLZShb" name="Page-1">
    <mxGraphModel dx="1021" dy="462" grid="1" gridSize="10" guides="1" tooltips="1" connect="1" arrows="1" fold="1" page="1" pageScale="1" pageWidth="827" pageHeight="1169" math="0" shadow="0">
      <root>
        <mxCell id="0" />
        <mxCell id="1" parent="0" />
        <mxCell id="b0gmlh_41LD_RdRGtaoa-16" style="edgeStyle=orthogonalEdgeStyle;rounded=0;orthogonalLoop=1;jettySize=auto;html=1;exitX=1;exitY=0.5;exitDx=0;exitDy=0;entryX=0;entryY=0.5;entryDx=0;entryDy=0;" edge="1" parent="1" source="b0gmlh_41LD_RdRGtaoa-1" target="b0gmlh_41LD_RdRGtaoa-2">
          <mxGeometry relative="1" as="geometry" />
        </mxCell>
        <mxCell id="b0gmlh_41LD_RdRGtaoa-1" value="&lt;div&gt;&lt;br&gt;&lt;/div&gt;&lt;div&gt;&lt;font style=&quot;font-size: 18px&quot;&gt;泵站水质异常人工举报&lt;/font&gt;&lt;/div&gt;" style="rounded=1;whiteSpace=wrap;html=1;fillColor=#fff2cc;strokeColor=#d6b656;" vertex="1" parent="1">
          <mxGeometry x="169" y="140" width="120" height="60" as="geometry" />
        </mxCell>
        <mxCell id="b0gmlh_41LD_RdRGtaoa-17" style="edgeStyle=orthogonalEdgeStyle;rounded=0;orthogonalLoop=1;jettySize=auto;html=1;exitX=1;exitY=0.5;exitDx=0;exitDy=0;" edge="1" parent="1" source="b0gmlh_41LD_RdRGtaoa-2" target="b0gmlh_41LD_RdRGtaoa-4">
          <mxGeometry relative="1" as="geometry" />
        </mxCell>
        <mxCell id="b0gmlh_41LD_RdRGtaoa-2" value="&lt;font style=&quot;font-size: 18px&quot;&gt;获取泵站、排口管网图&lt;/font&gt;" style="rounded=1;whiteSpace=wrap;html=1;fillColor=#fff2cc;strokeColor=#d6b656;" vertex="1" parent="1">
          <mxGeometry x="339" y="140" width="120" height="60" as="geometry" />
        </mxCell>
        <mxCell id="b0gmlh_41LD_RdRGtaoa-18" style="edgeStyle=orthogonalEdgeStyle;rounded=0;orthogonalLoop=1;jettySize=auto;html=1;exitX=1;exitY=0.5;exitDx=0;exitDy=0;entryX=0;entryY=0.5;entryDx=0;entryDy=0;" edge="1" parent="1" source="b0gmlh_41LD_RdRGtaoa-4" target="b0gmlh_41LD_RdRGtaoa-6">
          <mxGeometry relative="1" as="geometry" />
        </mxCell>
        <mxCell id="b0gmlh_41LD_RdRGtaoa-4" value="&lt;font style=&quot;font-size: 18px&quot;&gt;全局排查&lt;/font&gt;" style="shape=process;whiteSpace=wrap;html=1;backgroundOutline=1;fillColor=#fff2cc;strokeColor=#d6b656;" vertex="1" parent="1">
          <mxGeometry x="509" y="140" width="120" height="60" as="geometry" />
        </mxCell>
        <mxCell id="b0gmlh_41LD_RdRGtaoa-19" style="edgeStyle=orthogonalEdgeStyle;rounded=0;orthogonalLoop=1;jettySize=auto;html=1;exitX=0.5;exitY=1;exitDx=0;exitDy=0;entryX=0.5;entryY=0;entryDx=0;entryDy=0;" edge="1" parent="1" source="b0gmlh_41LD_RdRGtaoa-6" target="b0gmlh_41LD_RdRGtaoa-7">
          <mxGeometry relative="1" as="geometry" />
        </mxCell>
        <mxCell id="b0gmlh_41LD_RdRGtaoa-6" value="&lt;font style=&quot;font-size: 18px&quot;&gt;初步水质分析&lt;/font&gt;" style="rounded=1;whiteSpace=wrap;html=1;fillColor=#fff2cc;strokeColor=#d6b656;" vertex="1" parent="1">
          <mxGeometry x="679" y="140" width="120" height="60" as="geometry" />
        </mxCell>
        <mxCell id="b0gmlh_41LD_RdRGtaoa-20" style="edgeStyle=orthogonalEdgeStyle;rounded=0;orthogonalLoop=1;jettySize=auto;html=1;exitX=0;exitY=0.5;exitDx=0;exitDy=0;entryX=1;entryY=0.5;entryDx=0;entryDy=0;" edge="1" parent="1" source="b0gmlh_41LD_RdRGtaoa-7" target="b0gmlh_41LD_RdRGtaoa-8">
          <mxGeometry relative="1" as="geometry" />
        </mxCell>
        <mxCell id="b0gmlh_41LD_RdRGtaoa-7" value="&lt;font style=&quot;font-size: 18px&quot;&gt;检查井&lt;br&gt;采集水样&lt;/font&gt;" style="rounded=1;whiteSpace=wrap;html=1;fillColor=#fff2cc;strokeColor=#d6b656;" vertex="1" parent="1">
          <mxGeometry x="679" y="280" width="120" height="60" as="geometry" />
        </mxCell>
        <mxCell id="b0gmlh_41LD_RdRGtaoa-21" style="edgeStyle=orthogonalEdgeStyle;rounded=0;orthogonalLoop=1;jettySize=auto;html=1;exitX=0;exitY=0.5;exitDx=0;exitDy=0;entryX=1;entryY=0.5;entryDx=0;entryDy=0;" edge="1" parent="1" source="b0gmlh_41LD_RdRGtaoa-8" target="b0gmlh_41LD_RdRGtaoa-15">
          <mxGeometry relative="1" as="geometry" />
        </mxCell>
        <mxCell id="b0gmlh_41LD_RdRGtaoa-8" value="&lt;font style=&quot;font-size: 18px&quot;&gt;再次水质分析缩小排查范围&lt;/font&gt;" style="rounded=1;whiteSpace=wrap;html=1;fillColor=#fff2cc;strokeColor=#d6b656;" vertex="1" parent="1">
          <mxGeometry x="519" y="280" width="120" height="60" as="geometry" />
        </mxCell>
        <mxCell id="b0gmlh_41LD_RdRGtaoa-10" style="edgeStyle=orthogonalEdgeStyle;rounded=0;orthogonalLoop=1;jettySize=auto;html=1;exitX=0.5;exitY=1;exitDx=0;exitDy=0;" edge="1" parent="1" source="b0gmlh_41LD_RdRGtaoa-9" target="b0gmlh_41LD_RdRGtaoa-4">
          <mxGeometry relative="1" as="geometry" />
        </mxCell>
        <mxCell id="b0gmlh_41LD_RdRGtaoa-9" value="&lt;font style=&quot;font-size: 14px&quot;&gt;检查所有泵站、 关键排口及排口上下游 核查及水质取样&lt;/font&gt;" style="rounded=0;whiteSpace=wrap;html=1;fillColor=#e1d5e7;strokeColor=#9673a6;" vertex="1" parent="1">
          <mxGeometry x="509" y="30" width="120" height="60" as="geometry" />
        </mxCell>
        <mxCell id="b0gmlh_41LD_RdRGtaoa-12" style="edgeStyle=orthogonalEdgeStyle;rounded=0;orthogonalLoop=1;jettySize=auto;html=1;exitX=0.5;exitY=1;exitDx=0;exitDy=0;entryX=0.5;entryY=0;entryDx=0;entryDy=0;" edge="1" parent="1" source="b0gmlh_41LD_RdRGtaoa-11" target="b0gmlh_41LD_RdRGtaoa-6">
          <mxGeometry relative="1" as="geometry" />
        </mxCell>
        <mxCell id="b0gmlh_41LD_RdRGtaoa-11" value="&lt;font style=&quot;font-size: 14px&quot;&gt;分析泵站的问题是否是共性问题，发现总P超标严重，初步判断是&lt;br&gt;生活污水混接&lt;/font&gt;" style="rounded=0;whiteSpace=wrap;html=1;fillColor=#e1d5e7;strokeColor=#9673a6;" vertex="1" parent="1">
          <mxGeometry x="679" y="20" width="120" height="80" as="geometry" />
        </mxCell>
        <mxCell id="b0gmlh_41LD_RdRGtaoa-14" style="edgeStyle=orthogonalEdgeStyle;rounded=0;orthogonalLoop=1;jettySize=auto;html=1;exitX=0.5;exitY=0;exitDx=0;exitDy=0;entryX=0.5;entryY=1;entryDx=0;entryDy=0;" edge="1" parent="1" source="b0gmlh_41LD_RdRGtaoa-13" target="b0gmlh_41LD_RdRGtaoa-7">
          <mxGeometry relative="1" as="geometry" />
        </mxCell>
        <mxCell id="b0gmlh_41LD_RdRGtaoa-13" value="&lt;font style=&quot;font-size: 14px&quot;&gt;沿问题泵站雨水干管及各雨水支线汇入干管检查井&lt;br&gt;采集水样&lt;/font&gt;" style="rounded=0;whiteSpace=wrap;html=1;fillColor=#e1d5e7;strokeColor=#9673a6;" vertex="1" parent="1">
          <mxGeometry x="679" y="400" width="120" height="60" as="geometry" />
        </mxCell>
        <mxCell id="b0gmlh_41LD_RdRGtaoa-25" style="edgeStyle=orthogonalEdgeStyle;rounded=0;orthogonalLoop=1;jettySize=auto;html=1;exitX=0;exitY=0.5;exitDx=0;exitDy=0;entryX=1;entryY=0.5;entryDx=0;entryDy=0;" edge="1" parent="1" source="b0gmlh_41LD_RdRGtaoa-15" target="b0gmlh_41LD_RdRGtaoa-24">
          <mxGeometry relative="1" as="geometry" />
        </mxCell>
        <mxCell id="b0gmlh_41LD_RdRGtaoa-15" value="&lt;font style=&quot;font-size: 18px&quot;&gt;检查井&lt;br&gt;采集水样&lt;/font&gt;" style="rounded=1;whiteSpace=wrap;html=1;fillColor=#fff2cc;strokeColor=#d6b656;" vertex="1" parent="1">
          <mxGeometry x="359" y="280" width="120" height="60" as="geometry" />
        </mxCell>
        <mxCell id="b0gmlh_41LD_RdRGtaoa-23" style="edgeStyle=orthogonalEdgeStyle;rounded=0;orthogonalLoop=1;jettySize=auto;html=1;exitX=0.5;exitY=0;exitDx=0;exitDy=0;entryX=0.5;entryY=1;entryDx=0;entryDy=0;" edge="1" parent="1" source="b0gmlh_41LD_RdRGtaoa-22" target="b0gmlh_41LD_RdRGtaoa-15">
          <mxGeometry relative="1" as="geometry" />
        </mxCell>
        <mxCell id="b0gmlh_41LD_RdRGtaoa-22" value="&lt;font style=&quot;font-size: 14px&quot;&gt;雨水干管及汇入各路雨水支管现场核查及水质取样&lt;/font&gt;" style="rounded=0;whiteSpace=wrap;html=1;fillColor=#e1d5e7;strokeColor=#9673a6;" vertex="1" parent="1">
          <mxGeometry x="359" y="400" width="120" height="60" as="geometry" />
        </mxCell>
        <mxCell id="b0gmlh_41LD_RdRGtaoa-30" style="edgeStyle=orthogonalEdgeStyle;rounded=0;orthogonalLoop=1;jettySize=auto;html=1;exitX=0.5;exitY=1;exitDx=0;exitDy=0;entryX=0.5;entryY=0;entryDx=0;entryDy=0;" edge="1" parent="1" source="b0gmlh_41LD_RdRGtaoa-24" target="b0gmlh_41LD_RdRGtaoa-29">
          <mxGeometry relative="1" as="geometry" />
        </mxCell>
        <mxCell id="b0gmlh_41LD_RdRGtaoa-24" value="&lt;font style=&quot;font-size: 18px&quot;&gt;三次水质分析缩小排查范围&lt;/font&gt;" style="rounded=1;whiteSpace=wrap;html=1;fillColor=#fff2cc;strokeColor=#d6b656;" vertex="1" parent="1">
          <mxGeometry x="199" y="280" width="120" height="60" as="geometry" />
        </mxCell>
        <mxCell id="b0gmlh_41LD_RdRGtaoa-29" value="&lt;font style=&quot;font-size: 18px&quot;&gt;沿管线核查&lt;br&gt;确定污染源&lt;/font&gt;" style="rounded=1;whiteSpace=wrap;html=1;fillColor=#fff2cc;strokeColor=#d6b656;" vertex="1" parent="1">
          <mxGeometry x="199" y="400" width="120" height="60" as="geometry" />
        </mxCell>
      </root>
    </mxGraphModel>
  </diagram>
</mxfile>
